<?xml version="1.0" encoding="utf-8"?>
<!-- Generator: Adobe Illustrator 25.0.0, SVG Export Plug-In . SVG Version: 6.00 Build 0)  -->
<svg version="1.1" id="Layer_1" xmlns="http://www.w3.org/2000/svg" xmlns:xlink="http://www.w3.org/1999/xlink" x="0px" y="0px"
	 viewBox="0 0 1919.8 529" style="enable-background:new 0 0 1919.8 529;" xml:space="preserve">
<style type="text/css">
	.st0{opacity:7.000000e-02;}
	.st1{fill:#D4D4D4;}
</style>
<g class="st0">
	<g>
		<path class="st1" d="M959.9,612.8c-28.9,0-57.5,5.7-87.4,17.3l1.2,3.2c29.5-11.5,57.6-17.1,86.1-17.1c0,0,0,0,0,0L959.9,612.8
			C959.9,612.8,959.9,612.8,959.9,612.8z"/>
		<path class="st1" d="M173.5,630.2l1.2,3.2c29.5-11.5,57.6-17.1,86.1-17.1c28.5,0,56.7,5.6,86.1,17.1l1.2-3.2
			c-29.9-11.7-58.4-17.3-87.4-17.3C232,612.8,203.4,618.5,173.5,630.2z"/>
		<path class="st1" d="M959.9,589.9c-54.6,0-99.3,20.4-135.8,40.4l1.6,3c36.1-19.8,80.3-40,134.2-40c0,0,0,0,0,0L959.9,589.9
			C959.9,589.9,959.9,589.9,959.9,589.9z"/>
		<path class="st1" d="M125.1,630.3l1.6,3c36.1-19.8,80.3-40,134.2-40c53.8,0,98,20.2,134.2,40l1.6-3c-36.5-20-81.2-40.4-135.8-40.4
			C206.3,589.9,161.6,610.3,125.1,630.3z"/>
		<path class="st1" d="M959.9,566.9c-68.7,0-123.1,32.2-175.6,63.4l1.7,2.9c52.2-30.9,106.1-62.9,173.9-62.9c0,0,0,0,0,0
			L959.9,566.9C959.9,566.9,959.9,566.9,959.9,566.9z"/>
		<path class="st1" d="M85.3,630.3l1.7,2.9c52.2-30.9,106.1-62.9,173.9-62.9c67.8,0,121.7,32,173.9,62.9l1.7-3
			c-52.6-31.1-106.9-63.4-175.6-63.4C192.2,566.9,137.9,599.1,85.3,630.3z"/>
		<path class="st1" d="M959.9,544c-68.7,0-123.1,32.2-175.6,63.4c-12.9,7.7-26.3,15.6-39.7,22.9l1.6,3c13.4-7.3,26.8-15.3,39.8-23
			c52.2-30.9,106.1-62.9,173.9-62.9c0,0,0,0,0,0L959.9,544C959.9,544,959.9,544,959.9,544z"/>
		<path class="st1" d="M260.9,544c-68.7,0-123.1,32.2-175.6,63.4C72.4,615,59,623,45.6,630.3l1.6,3c13.4-7.3,26.8-15.3,39.8-23
			c52.2-30.9,106.1-62.9,173.9-62.9c67.8,0,121.7,32,173.9,62.9c13,7.7,26.4,15.6,39.8,23l1.6-3c-13.4-7.3-26.8-15.3-39.7-22.9
			C384,576.2,329.6,544,260.9,544z"/>
		<path class="st1" d="M959.9,521c-68.7,0-123.1,32.2-175.6,63.4c-28,16.6-57,33.8-87.7,45.8l1.2,3.2c31-12.1,60.1-29.4,88.2-46
			c52.2-30.9,106.1-62.9,173.9-62.9c0,0,0,0,0,0L959.9,521C959.9,521,959.9,521,959.9,521z"/>
		<path class="st1" d="M260.9,521c-68.7,0-123.1,32.2-175.6,63.4c-27.8,16.5-56.6,33.6-87.1,45.6l1.3,3.2
			C30.2,621,59.1,603.9,87,587.3c52.2-30.9,106.1-62.9,173.9-62.9c67.8,0,121.7,32,173.9,62.9c28.1,16.7,57.2,33.9,88.2,46l1.2-3.2
			c-30.7-12-59.7-29.2-87.7-45.8C384,553.2,329.6,521,260.9,521z"/>
		<path class="st1" d="M959.9,501.5v-3.4c-68.7,0-123.1,32.2-175.6,63.4c-52.2,30.9-106.1,62.9-173.9,62.9s-121.7-32-173.9-62.9
			c-52.6-31.2-106.9-63.4-175.6-63.4c-68.7,0-123.1,32.2-175.6,63.4C57.5,577.9,28.7,595-1.8,607l1.3,3.2
			c30.8-12.1,59.7-29.2,87.6-45.8c52.2-30.9,106.1-62.9,173.9-62.9c67.8,0,121.7,32,173.9,62.9c52.6,31.2,106.9,63.4,175.6,63.4
			c68.7,0,123.1-32.2,175.6-63.4C838.2,533.5,892.1,501.5,959.9,501.5z"/>
		<path class="st1" d="M87,541.4c52.2-30.9,106.1-62.9,173.9-62.9c67.8,0,121.7,32,173.9,62.9c52.6,31.2,106.9,63.4,175.6,63.4
			c68.7,0,123.1-32.2,175.6-63.4c52.2-30.9,106.1-62.9,173.9-62.9v-3.4c-68.7,0-123.1,32.2-175.6,63.4
			c-52.2,30.9-106.1,62.9-173.9,62.9s-121.7-32-173.9-62.9c-52.6-31.2-106.9-63.4-175.6-63.4c-68.7,0-123.1,32.2-175.6,63.4
			C57.5,555,28.7,572-1.8,584l1.3,3.2C30.2,575.1,59.1,558,87,541.4z"/>
		<path class="st1" d="M87,518.5c52.2-30.9,106.1-62.9,173.9-62.9c67.8,0,121.7,32,173.9,62.9c52.6,31.2,106.9,63.4,175.6,63.4
			c68.7,0,123.1-32.2,175.6-63.4c52.2-30.9,106.1-62.9,173.9-62.9v-3.4c-68.7,0-123.1,32.2-175.6,63.4
			c-52.2,30.9-106.1,62.9-173.9,62.9s-121.7-32-173.9-62.9c-52.6-31.2-106.9-63.4-175.6-63.4c-68.7,0-123.1,32.2-175.6,63.4
			C57.5,532,28.7,549.1-1.8,561.1l1.3,3.2C30.2,552.2,59.1,535,87,518.5z"/>
		<path class="st1" d="M87,495.5c52.2-30.9,106.1-62.9,173.9-62.9c67.8,0,121.7,32,173.9,62.9c52.6,31.2,106.9,63.4,175.6,63.4
			c68.7,0,123.1-32.2,175.6-63.4c52.2-30.9,106.1-62.9,173.9-62.9v-3.4c-68.7,0-123.1,32.2-175.6,63.4
			c-52.2,30.9-106.1,62.9-173.9,62.9s-121.7-32-173.9-62.9c-52.6-31.2-106.9-63.4-175.6-63.4c-68.7,0-123.1,32.2-175.6,63.4
			c-27.8,16.5-56.6,33.6-87.1,45.6l1.3,3.2C30.2,529.2,59.1,512.1,87,495.5z"/>
		<path class="st1" d="M87,472.6c52.2-30.9,106.1-62.9,173.9-62.9c67.8,0,121.7,32,173.9,62.9c52.6,31.2,106.9,63.4,175.6,63.4
			c68.7,0,123.1-32.2,175.6-63.4c52.2-30.9,106.1-62.9,173.9-62.9v-3.4c-68.7,0-123.1,32.2-175.6,63.4
			c-52.2,30.9-106.1,62.9-173.9,62.9s-121.7-32-173.9-62.9c-52.6-31.2-106.9-63.4-175.6-63.4c-68.7,0-123.1,32.2-175.6,63.4
			c-27.8,16.5-56.6,33.6-87.1,45.6l1.3,3.2C30.2,506.3,59.1,489.1,87,472.6z"/>
		<path class="st1" d="M87,449.6c52.2-30.9,106.1-62.9,173.9-62.9c67.8,0,121.7,32,173.9,62.9c52.6,31.2,106.9,63.4,175.6,63.4
			c68.7,0,123.1-32.2,175.6-63.4c52.2-30.9,106.1-62.9,173.9-62.9v-3.4c-68.7,0-123.1,32.2-175.6,63.4
			c-52.2,30.9-106.1,62.9-173.9,62.9s-121.7-32-173.9-62.9c-52.6-31.2-106.9-63.4-175.6-63.4c-68.7,0-123.1,32.2-175.6,63.4
			c-27.8,16.5-56.6,33.6-87.1,45.6l1.3,3.2C30.2,483.3,59.1,466.2,87,449.6z"/>
		<path class="st1" d="M87,426.7c52.2-30.9,106.1-62.9,173.9-62.9c67.8,0,121.7,32,173.9,62.9c52.6,31.2,106.9,63.4,175.6,63.4
			c68.7,0,123.1-32.2,175.6-63.4c52.2-30.9,106.1-62.9,173.9-62.9v-3.4c-68.7,0-123.1,32.2-175.6,63.4
			c-52.2,30.9-106.1,62.9-173.9,62.9s-121.7-32-173.9-62.9c-52.6-31.2-106.9-63.4-175.6-63.4c-68.7,0-123.1,32.2-175.6,63.4
			c-27.8,16.5-56.6,33.6-87.1,45.6l1.3,3.2C30.2,460.4,59.1,443.2,87,426.7z"/>
		<path class="st1" d="M87,403.7c52.2-30.9,106.1-62.9,173.9-62.9c67.8,0,121.7,32,173.9,62.9c52.6,31.2,106.9,63.4,175.6,63.4
			c68.7,0,123.1-32.2,175.6-63.4c52.2-30.9,106.1-62.9,173.9-62.9v-3.4c-68.7,0-123.1,32.2-175.6,63.4
			c-52.2,30.9-106.1,62.9-173.9,62.9s-121.7-32-173.9-62.9c-52.6-31.2-106.9-63.4-175.6-63.4c-68.7,0-123.1,32.2-175.6,63.4
			c-27.8,16.5-56.6,33.6-87.1,45.6l1.3,3.2C30.2,437.4,59.1,420.3,87,403.7z"/>
		<path class="st1" d="M87,380.7c52.2-30.9,106.1-62.9,173.9-62.9c67.8,0,121.7,32,173.9,62.9c52.6,31.2,106.9,63.4,175.6,63.4
			c68.7,0,123.1-32.2,175.6-63.4c52.2-30.9,106.1-62.9,173.9-62.9v-3.4c-68.7,0-123.1,32.2-175.6,63.4
			c-52.2,30.9-106.1,62.9-173.9,62.9s-121.7-32-173.9-62.9c-52.6-31.2-106.9-63.4-175.6-63.4c-68.7,0-123.1,32.2-175.6,63.4
			c-27.8,16.5-56.6,33.6-87.1,45.6l1.3,3.2C30.2,414.4,59.1,397.3,87,380.7z"/>
		<path class="st1" d="M87,357.8c52.2-30.9,106.1-62.9,173.9-62.9c67.8,0,121.7,32,173.9,62.9c52.6,31.2,106.9,63.4,175.6,63.4
			c68.7,0,123.1-32.2,175.6-63.4c52.2-30.9,106.1-62.9,173.9-62.9v-3.4c-68.7,0-123.1,32.2-175.6,63.4
			c-52.2,30.9-106.1,62.9-173.9,62.9s-121.7-32-173.9-62.9c-52.6-31.2-106.9-63.4-175.6-63.4c-68.7,0-123.1,32.2-175.6,63.4
			c-27.8,16.5-56.6,33.6-87.1,45.6l1.3,3.2C30.2,391.5,59.1,374.4,87,357.8z"/>
		<path class="st1" d="M87,334.8c52.2-30.9,106.1-62.9,173.9-62.9c67.8,0,121.7,32,173.9,62.9c52.6,31.2,106.9,63.4,175.6,63.4
			c68.7,0,123.1-32.2,175.6-63.4c52.2-30.9,106.1-62.9,173.9-62.9v-3.4c-68.7,0-123.1,32.2-175.6,63.4
			c-52.2,30.9-106.1,62.9-173.9,62.9s-121.7-32-173.9-62.9c-52.6-31.2-106.9-63.4-175.6-63.4c-68.7,0-123.1,32.2-175.6,63.4
			c-27.8,16.5-56.6,33.6-87.1,45.6l1.3,3.2C30.2,368.5,59.1,351.4,87,334.8z"/>
		<path class="st1" d="M87,311.9C139.2,281,193.1,249,260.9,249c67.8,0,121.7,32,173.9,62.9c52.6,31.2,106.9,63.4,175.6,63.4
			c68.7,0,123.1-32.2,175.6-63.4C838.2,281,892.1,249,959.9,249v-3.4c-68.7,0-123.1,32.2-175.6,63.4
			c-52.2,30.9-106.1,62.9-173.9,62.9s-121.7-32-173.9-62.9c-52.6-31.2-106.9-63.4-175.6-63.4c-68.7,0-123.1,32.2-175.6,63.4
			c-27.8,16.5-56.6,33.6-87.1,45.6l1.3,3.2C30.2,345.6,59.1,328.4,87,311.9z"/>
		<path class="st1" d="M87,288.9C139.2,258,193.1,226,260.9,226c67.8,0,121.7,32,173.9,62.9c52.6,31.2,106.9,63.4,175.6,63.4
			c68.7,0,123.1-32.2,175.6-63.4C838.2,258,892.1,226,959.9,226v-3.4c-68.7,0-123.1,32.2-175.6,63.4
			c-52.2,30.9-106.1,62.9-173.9,62.9s-121.7-32-173.9-62.9c-52.6-31.2-106.9-63.4-175.6-63.4c-68.7,0-123.1,32.2-175.6,63.4
			c-27.8,16.5-56.6,33.6-87.1,45.6l1.3,3.2C30.2,322.6,59.1,305.5,87,288.9z"/>
		<path class="st1" d="M87,266c52.2-30.9,106.1-62.9,173.9-62.9c67.8,0,121.7,32,173.9,62.9c52.6,31.2,106.9,63.4,175.6,63.4
			c68.7,0,123.1-32.2,175.6-63.4c52.2-30.9,106.1-62.9,173.9-62.9v-3.4c-68.7,0-123.1,32.2-175.6,63.4
			c-52.2,30.9-106.1,62.9-173.9,62.9s-121.7-32-173.9-62.9c-52.6-31.2-106.9-63.4-175.6-63.4c-68.7,0-123.1,32.2-175.6,63.4
			c-27.8,16.5-56.6,33.6-87.1,45.6l1.3,3.2C30.2,299.7,59.1,282.5,87,266z"/>
		<path class="st1" d="M87,243c52.2-30.9,106.1-62.9,173.9-62.9c67.8,0,121.7,32,173.9,62.9c52.6,31.2,106.9,63.4,175.6,63.4
			c68.7,0,123.1-32.2,175.6-63.4c52.2-30.9,106.1-62.9,173.9-62.9v-3.4c-68.7,0-123.1,32.2-175.6,63.4
			C732.1,271,678.2,303,610.4,303s-121.7-32-173.9-62.9c-52.6-31.2-106.9-63.4-175.6-63.4c-68.7,0-123.1,32.2-175.6,63.4
			c-27.8,16.5-56.6,33.6-87.1,45.6l1.3,3.2C30.2,276.7,59.1,259.6,87,243z"/>
		<path class="st1" d="M87,220.1c52.2-30.9,106.1-62.9,173.9-62.9c67.8,0,121.7,32,173.9,62.9c52.6,31.2,106.9,63.4,175.6,63.4
			c68.7,0,123.1-32.2,175.6-63.4c52.2-30.9,106.1-62.9,173.9-62.9v-3.4c-68.7,0-123.1,32.2-175.6,63.4
			C732.1,248,678.2,280,610.4,280s-121.7-32-173.9-62.9C384,186,329.6,153.8,260.9,153.8c-68.7,0-123.1,32.2-175.6,63.4
			c-27.8,16.5-56.6,33.6-87.1,45.6l1.3,3.2C30.2,253.8,59.1,236.6,87,220.1z"/>
		<path class="st1" d="M87,197.1c52.2-30.9,106.1-62.9,173.9-62.9c67.8,0,121.7,32,173.9,62.9c52.6,31.2,106.9,63.4,175.6,63.4
			c68.7,0,123.1-32.2,175.6-63.4c52.2-30.9,106.1-62.9,173.9-62.9v-3.4c-68.7,0-123.1,32.2-175.6,63.4
			c-52.2,30.9-106.1,62.9-173.9,62.9s-121.7-32-173.9-62.9C384,163,329.6,130.8,260.9,130.8c-68.7,0-123.1,32.2-175.6,63.4
			c-27.8,16.5-56.6,33.6-87.1,45.6l1.3,3.2C30.2,230.8,59.1,213.7,87,197.1z"/>
		<path class="st1" d="M87,174.2c52.2-30.9,106.1-62.9,173.9-62.9c67.8,0,121.7,32,173.9,62.9c52.6,31.2,106.9,63.4,175.6,63.4
			c68.7,0,123.1-32.2,175.6-63.4c52.2-30.9,106.1-62.9,173.9-62.9v-3.4c-68.7,0-123.1,32.2-175.6,63.4
			c-52.2,30.9-106.1,62.9-173.9,62.9s-121.7-32-173.9-62.9c-52.6-31.2-106.9-63.4-175.6-63.4c-68.7,0-123.1,32.2-175.6,63.4
			c-27.8,16.5-56.6,33.6-87.1,45.6l1.3,3.2C30.2,207.9,59.1,190.7,87,174.2z"/>
		<path class="st1" d="M87,151.2c52.2-30.9,106.1-62.9,173.9-62.9c67.8,0,121.7,32,173.9,62.9c52.6,31.2,106.9,63.4,175.6,63.4
			c68.7,0,123.1-32.2,175.6-63.4c52.2-30.9,106.1-62.9,173.9-62.9v-3.4c-68.7,0-123.1,32.2-175.6,63.4
			c-52.2,30.9-106.1,62.9-173.9,62.9s-121.7-32-173.9-62.9C384,117.1,329.6,84.9,260.9,84.9c-68.7,0-123.1,32.2-175.6,63.4
			c-27.8,16.5-56.6,33.6-87.1,45.6l1.3,3.2C30.2,184.9,59.1,167.8,87,151.2z"/>
		<path class="st1" d="M87,128.2c52.2-30.9,106.1-62.9,173.9-62.9s121.7,32,173.9,62.9c52.6,31.2,106.9,63.4,175.6,63.4
			c68.7,0,123.1-32.2,175.6-63.4c52.2-30.9,106.1-62.9,173.9-62.9v-3.4c-68.7,0-123.1,32.2-175.6,63.4
			c-52.2,30.9-106.1,62.9-173.9,62.9s-121.7-32-173.9-62.9C384,94.2,329.6,61.9,260.9,61.9c-68.7,0-123.1,32.2-175.6,63.4
			c-27.8,16.5-56.6,33.6-87.1,45.6l1.3,3.2C30.2,161.9,59.1,144.8,87,128.2z"/>
		<path class="st1" d="M87,105.3c52.2-30.9,106.1-62.9,173.9-62.9c67.8,0,121.7,32,173.9,62.9c52.6,31.2,106.9,63.4,175.6,63.4
			c68.7,0,123.1-32.2,175.6-63.4c52.2-30.9,106.1-62.9,173.9-62.9V39c-68.7,0-123.1,32.2-175.6,63.4
			c-52.2,30.9-106.1,62.9-173.9,62.9s-121.7-32-173.9-62.9C384,71.2,329.6,39,260.9,39c-68.7,0-123.1,32.2-175.6,63.4
			c-27.8,16.5-56.6,33.6-87.1,45.6l1.3,3.2C30.2,139,59.1,121.9,87,105.3z"/>
		<path class="st1" d="M87,82.3c52.2-30.9,106.1-62.9,173.9-62.9c67.8,0,121.7,32,173.9,62.9c52.6,31.2,106.9,63.4,175.6,63.4
			c68.7,0,123.1-32.2,175.6-63.4c52.2-30.9,106.1-62.9,173.9-62.9V16c-68.7,0-123.1,32.2-175.6,63.4
			c-52.2,30.9-106.1,62.9-173.9,62.9s-121.7-32-173.9-62.9C384,48.2,329.6,16,260.9,16c-68.7,0-123.1,32.2-175.6,63.4
			C57.5,95.9,28.7,113-1.8,124.9l1.3,3.2C30.2,116,59.1,98.9,87,82.3z"/>
		<path class="st1" d="M87,59.4C139.2,28.5,193.1-3.5,260.9-3.5c67.8,0,121.7,32,173.9,62.9c52.6,31.2,106.9,63.4,175.6,63.4
			c68.7,0,123.1-32.2,175.6-63.4C838.2,28.5,892.1-3.5,959.9-3.5v-3.4c-68.7,0-123.1,32.2-175.6,63.4
			c-52.2,30.9-106.1,62.9-173.9,62.9s-121.7-32-173.9-62.9C384,25.3,329.6-6.9,260.9-6.9c-68.7,0-123.1,32.2-175.6,63.4
			C57.5,72.9,28.7,90-1.8,102l1.3,3.2C30.2,93.1,59.1,75.9,87,59.4z"/>
		<path class="st1" d="M87,36.4c52.2-30.9,106.1-62.9,173.9-62.9c67.8,0,121.7,32,173.9,62.9c52.6,31.2,106.9,63.4,175.6,63.4
			c68.7,0,123.1-32.2,175.6-63.4c52.2-30.9,106.1-62.9,173.9-62.9v-3.4c-68.7,0-123.1,32.2-175.6,63.4
			c-52.2,30.9-106.1,62.9-173.9,62.9s-121.7-32-173.9-62.9C384,2.3,329.6-29.9,260.9-29.9c-68.7,0-123.1,32.2-175.6,63.4
			C57.5,50,28.7,67-1.8,79l1.3,3.2C30.2,70.1,59.1,53,87,36.4z"/>
		<path class="st1" d="M87,13.5c52.2-30.9,106.1-62.9,173.9-62.9c67.8,0,121.7,32,173.9,62.9c52.6,31.2,106.9,63.4,175.6,63.4
			c68.7,0,123.1-32.2,175.6-63.4c52.2-30.9,106.1-62.9,173.9-62.9v-3.4c-68.7,0-123.1,32.2-175.6,63.4
			c-52.2,30.9-106.1,62.9-173.9,62.9s-121.7-32-173.9-62.9C384-20.6,329.6-52.8,260.9-52.8c-68.7,0-123.1,32.2-175.6,63.4
			C57.5,27,28.7,44.1-1.8,56.1l1.3,3.2C30.2,47.2,59.1,30,87,13.5z"/>
		<path class="st1" d="M87-9.5c52.2-30.9,106.1-62.9,173.9-62.9c67.8,0,121.7,32,173.9,62.9c52.6,31.2,106.9,63.4,175.6,63.4
			c68.7,0,123.1-32.2,175.6-63.4c52.2-30.9,106.1-62.9,173.9-62.9v-3.4c-68.7,0-123.1,32.2-175.6,63.4
			c-52.2,30.9-106.1,62.9-173.9,62.9s-121.7-32-173.9-62.9C384-43.6,329.6-75.8,260.9-75.8c-68.7,0-123.1,32.2-175.6,63.4
			C57.5,4.1,28.7,21.1-1.8,33.1l1.3,3.2C30.2,24.2,59.1,7.1,87-9.5z"/>
		<path class="st1" d="M87-32.4c52.2-30.9,106.1-62.9,173.9-62.9c67.8,0,121.7,32,173.9,62.9c52.6,31.2,106.9,63.4,175.6,63.4
			c68.7,0,123.1-32.2,175.6-63.4c52.2-30.9,106.1-62.9,173.9-62.9v-3.4c-68.7,0-123.1,32.2-175.6,63.4
			C732.1-4.5,678.2,27.5,610.4,27.5s-121.7-32-173.9-62.9C384-66.5,329.6-98.7,260.9-98.7c-68.7,0-123.1,32.2-175.6,63.4
			C57.5-18.9,28.7-1.8-1.8,10.2l1.3,3.2C30.2,1.3,59.1-15.9,87-32.4z"/>
		<path class="st1" d="M610.4,8C679.1,8,733.5-24.2,786-55.4c28-16.6,57-33.8,87.7-45.8l-1.2-3.2c-31,12.1-60.1,29.4-88.2,46
			C732.1-27.4,678.2,4.6,610.4,4.6c-67.8,0-121.7-32-173.9-62.9c-28.1-16.7-57.2-33.9-88.2-46l-1.2,3.2c30.7,12,59.7,29.2,87.7,45.8
			C487.3-24.2,541.7,8,610.4,8z"/>
		<path class="st1" d="M87-55.4c28-16.6,57-33.8,87.7-45.8l-1.2-3.2c-31,12.1-60.1,29.4-88.2,46C57.5-41.8,28.7-24.8-1.8-12.8
			l1.3,3.2C30.2-21.7,59.1-38.8,87-55.4z"/>
		<path class="st1" d="M610.4-15c68.7,0,123.1-32.2,175.6-63.4C799-86,812.4-94,825.7-101.3l-1.6-3c-13.4,7.3-26.8,15.3-39.8,23
			c-52.2,30.9-106.1,62.9-173.9,62.9c-67.8,0-121.7-32-173.9-62.9c-13-7.7-26.4-15.6-39.8-23l-1.6,3c13.4,7.3,26.8,15.3,39.7,22.9
			C487.3-47.2,541.7-15,610.4-15z"/>
		<path class="st1" d="M87-78.3c12.9-7.7,26.3-15.6,39.7-22.9l-1.6-3c-13.4,7.3-26.8,15.3-39.8,23C57.5-64.8,28.7-47.7-1.8-35.7
			l1.3,3.2C30.2-44.6,59.1-61.8,87-78.3z"/>
		<path class="st1" d="M786-101.3l-1.8-2.9c-52.2,30.9-106.1,62.9-173.9,62.9c-67.8,0-121.7-32-173.9-62.9l-1.7,2.9
			c52.6,31.2,106.9,63.4,175.6,63.4C679.1-37.9,733.5-70.1,786-101.3z"/>
		<path class="st1" d="M87-101.3l-1.8-2.9C57.4-87.7,28.7-70.7-1.8-58.7l1.3,3.2C30.2-67.6,59.1-84.7,87-101.3z"/>
		<path class="st1" d="M746.2-101.3l-1.6-3c-36.1,19.8-80.3,40-134.2,40c-53.8,0-98-20.2-134.2-40l-1.6,3
			c36.5,20,81.2,40.4,135.8,40.4C665-60.9,709.7-81.3,746.2-101.3z"/>
		<path class="st1" d="M47.2-101.3l-1.6-3C27.9-94.6,12.9-87.4-1.8-81.6l1.3,3.2C14.2-84.3,29.4-91.5,47.2-101.3z"/>
		<path class="st1" d="M697.8-101.2l-1.2-3.2c-29.5,11.5-57.6,17.1-86.1,17.1c-28.5,0-56.7-5.6-86.1-17.1l-1.2,3.2
			c29.9,11.7,58.4,17.3,87.4,17.3C639.4-83.8,667.9-89.5,697.8-101.2z"/>
	</g>
	<g>
		<path class="st1" d="M959.9,612.8c28.9,0,57.5,5.7,87.4,17.3l-1.2,3.2c-29.5-11.5-57.6-17.1-86.1-17.1c0,0,0,0,0,0L959.9,612.8
			C959.9,612.8,959.9,612.8,959.9,612.8z"/>
		<path class="st1" d="M1746.3,630.2l-1.2,3.2c-29.5-11.5-57.6-17.1-86.1-17.1c-28.5,0-56.7,5.6-86.1,17.1l-1.2-3.2
			c29.9-11.7,58.4-17.3,87.4-17.3C1687.8,612.8,1716.4,618.5,1746.3,630.2z"/>
		<path class="st1" d="M959.9,589.9c54.6,0,99.3,20.4,135.8,40.4l-1.6,3c-36.1-19.8-80.3-40-134.2-40c0,0,0,0,0,0L959.9,589.9
			C959.9,589.9,959.9,589.9,959.9,589.9z"/>
		<path class="st1" d="M1794.7,630.3l-1.6,3c-36.1-19.8-80.3-40-134.2-40c-53.8,0-98,20.2-134.2,40l-1.6-3
			c36.5-20,81.2-40.4,135.8-40.4C1713.5,589.9,1758.2,610.3,1794.7,630.3z"/>
		<path class="st1" d="M959.9,566.9c68.7,0,123.1,32.2,175.6,63.4l-1.7,2.9c-52.2-30.9-106.1-62.9-173.9-62.9c0,0,0,0,0,0
			L959.9,566.9C959.9,566.9,959.9,566.9,959.9,566.9z"/>
		<path class="st1" d="M1834.5,630.3l-1.7,2.9c-52.2-30.9-106.1-62.9-173.9-62.9c-67.8,0-121.7,32-173.9,62.9l-1.7-3
			c52.6-31.1,106.9-63.4,175.6-63.4C1727.6,566.9,1781.9,599.1,1834.5,630.3z"/>
		<path class="st1" d="M959.9,544c68.7,0,123.1,32.2,175.6,63.4c12.9,7.7,26.3,15.6,39.7,22.9l-1.6,3c-13.4-7.3-26.8-15.3-39.8-23
			c-52.2-30.9-106.1-62.9-173.9-62.9c0,0,0,0,0,0L959.9,544C959.9,544,959.9,544,959.9,544z"/>
		<path class="st1" d="M1658.9,544c68.7,0,123.1,32.2,175.6,63.4c12.9,7.7,26.3,15.6,39.7,22.9l-1.6,3c-13.4-7.3-26.8-15.3-39.8-23
			c-52.2-30.9-106.1-62.9-173.9-62.9c-67.8,0-121.7,32-173.9,62.9c-13,7.7-26.4,15.6-39.8,23l-1.6-3c13.4-7.3,26.8-15.3,39.7-22.9
			C1535.8,576.2,1590.2,544,1658.9,544z"/>
		<path class="st1" d="M959.9,521c68.7,0,123.1,32.2,175.6,63.4c28,16.6,57,33.8,87.7,45.8l-1.2,3.2c-31-12.1-60.1-29.4-88.2-46
			c-52.2-30.9-106.1-62.9-173.9-62.9c0,0,0,0,0,0L959.9,521C959.9,521,959.9,521,959.9,521z"/>
		<path class="st1" d="M1658.9,521c68.7,0,123.1,32.2,175.6,63.4c27.8,16.5,56.6,33.6,87.1,45.6l-1.3,3.2
			c-30.8-12.1-59.7-29.2-87.6-45.8c-52.2-30.9-106.1-62.9-173.9-62.9c-67.8,0-121.7,32-173.9,62.9c-28.1,16.7-57.2,33.9-88.2,46
			l-1.2-3.2c30.7-12,59.7-29.2,87.7-45.8C1535.8,553.2,1590.2,521,1658.9,521z"/>
		<path class="st1" d="M959.9,501.5v-3.4c68.7,0,123.1,32.2,175.6,63.4c52.2,30.9,106.1,62.9,173.9,62.9s121.7-32,173.9-62.9
			c52.6-31.2,106.9-63.4,175.6-63.4c68.7,0,123.1,32.2,175.6,63.4c27.8,16.5,56.6,33.6,87.1,45.6l-1.3,3.2
			c-30.8-12.1-59.7-29.2-87.6-45.8c-52.2-30.9-106.1-62.9-173.9-62.9c-67.8,0-121.7,32-173.9,62.9c-52.6,31.2-106.9,63.4-175.6,63.4
			c-68.7,0-123.1-32.2-175.6-63.4C1081.6,533.5,1027.7,501.5,959.9,501.5z"/>
		<path class="st1" d="M1832.8,541.4c-52.2-30.9-106.1-62.9-173.9-62.9c-67.8,0-121.7,32-173.9,62.9
			c-52.6,31.2-106.9,63.4-175.6,63.4c-68.7,0-123.1-32.2-175.6-63.4c-52.2-30.9-106.1-62.9-173.9-62.9v-3.4
			c68.7,0,123.1,32.2,175.6,63.4c52.2,30.9,106.1,62.9,173.9,62.9s121.7-32,173.9-62.9c52.6-31.2,106.9-63.4,175.6-63.4
			c68.7,0,123.1,32.2,175.6,63.4c27.8,16.5,56.6,33.6,87.1,45.6l-1.3,3.2C1889.6,575.1,1860.7,558,1832.8,541.4z"/>
		<path class="st1" d="M1832.8,518.5c-52.2-30.9-106.1-62.9-173.9-62.9c-67.8,0-121.7,32-173.9,62.9
			c-52.6,31.2-106.9,63.4-175.6,63.4c-68.7,0-123.1-32.2-175.6-63.4c-52.2-30.9-106.1-62.9-173.9-62.9v-3.4
			c68.7,0,123.1,32.2,175.6,63.4c52.2,30.9,106.1,62.9,173.9,62.9s121.7-32,173.9-62.9c52.6-31.2,106.9-63.4,175.6-63.4
			c68.7,0,123.1,32.2,175.6,63.4c27.8,16.5,56.6,33.6,87.1,45.6l-1.3,3.2C1889.6,552.2,1860.7,535,1832.8,518.5z"/>
		<path class="st1" d="M1832.8,495.5c-52.2-30.9-106.1-62.9-173.9-62.9c-67.8,0-121.7,32-173.9,62.9
			c-52.6,31.2-106.9,63.4-175.6,63.4c-68.7,0-123.1-32.2-175.6-63.4c-52.2-30.9-106.1-62.9-173.9-62.9v-3.4
			c68.7,0,123.1,32.2,175.6,63.4c52.2,30.9,106.1,62.9,173.9,62.9s121.7-32,173.9-62.9c52.6-31.2,106.9-63.4,175.6-63.4
			c68.7,0,123.1,32.2,175.6,63.4c27.8,16.5,56.6,33.6,87.1,45.6l-1.3,3.2C1889.6,529.2,1860.7,512.1,1832.8,495.5z"/>
		<path class="st1" d="M1832.8,472.6c-52.2-30.9-106.1-62.9-173.9-62.9c-67.8,0-121.7,32-173.9,62.9
			c-52.6,31.2-106.9,63.4-175.6,63.4c-68.7,0-123.1-32.2-175.6-63.4c-52.2-30.9-106.1-62.9-173.9-62.9v-3.4
			c68.7,0,123.1,32.2,175.6,63.4c52.2,30.9,106.1,62.9,173.9,62.9s121.7-32,173.9-62.9c52.6-31.2,106.9-63.4,175.6-63.4
			c68.7,0,123.1,32.2,175.6,63.4c27.8,16.5,56.6,33.6,87.1,45.6l-1.3,3.2C1889.6,506.3,1860.7,489.1,1832.8,472.6z"/>
		<path class="st1" d="M1832.8,449.6c-52.2-30.9-106.1-62.9-173.9-62.9c-67.8,0-121.7,32-173.9,62.9
			c-52.6,31.2-106.9,63.4-175.6,63.4c-68.7,0-123.1-32.2-175.6-63.4c-52.2-30.9-106.1-62.9-173.9-62.9v-3.4
			c68.7,0,123.1,32.2,175.6,63.4c52.2,30.9,106.1,62.9,173.9,62.9s121.7-32,173.9-62.9c52.6-31.2,106.9-63.4,175.6-63.4
			c68.7,0,123.1,32.2,175.6,63.4c27.8,16.5,56.6,33.6,87.1,45.6l-1.3,3.2C1889.6,483.3,1860.7,466.2,1832.8,449.6z"/>
		<path class="st1" d="M1832.8,426.7c-52.2-30.9-106.1-62.9-173.9-62.9c-67.8,0-121.7,32-173.9,62.9
			c-52.6,31.2-106.9,63.4-175.6,63.4c-68.7,0-123.1-32.2-175.6-63.4c-52.2-30.9-106.1-62.9-173.9-62.9v-3.4
			c68.7,0,123.1,32.2,175.6,63.4c52.2,30.9,106.1,62.9,173.9,62.9s121.7-32,173.9-62.9c52.6-31.2,106.9-63.4,175.6-63.4
			c68.7,0,123.1,32.2,175.6,63.4c27.8,16.5,56.6,33.6,87.1,45.6l-1.3,3.2C1889.6,460.4,1860.7,443.2,1832.8,426.7z"/>
		<path class="st1" d="M1832.8,403.7c-52.2-30.9-106.1-62.9-173.9-62.9c-67.8,0-121.7,32-173.9,62.9
			c-52.6,31.2-106.9,63.4-175.6,63.4c-68.7,0-123.1-32.2-175.6-63.4c-52.2-30.9-106.1-62.9-173.9-62.9v-3.4
			c68.7,0,123.1,32.2,175.6,63.4c52.2,30.9,106.1,62.9,173.9,62.9s121.7-32,173.9-62.9c52.6-31.2,106.9-63.4,175.6-63.4
			c68.7,0,123.1,32.2,175.6,63.4c27.8,16.5,56.6,33.6,87.1,45.6l-1.3,3.2C1889.6,437.4,1860.7,420.3,1832.8,403.7z"/>
		<path class="st1" d="M1832.8,380.7c-52.2-30.9-106.1-62.9-173.9-62.9c-67.8,0-121.7,32-173.9,62.9
			c-52.6,31.2-106.9,63.4-175.6,63.4c-68.7,0-123.1-32.2-175.6-63.4c-52.2-30.9-106.1-62.9-173.9-62.9v-3.4
			c68.7,0,123.1,32.2,175.6,63.4c52.2,30.9,106.1,62.9,173.9,62.9s121.7-32,173.9-62.9c52.6-31.2,106.9-63.4,175.6-63.4
			c68.7,0,123.1,32.2,175.6,63.4c27.8,16.5,56.6,33.6,87.1,45.6l-1.3,3.2C1889.6,414.4,1860.7,397.3,1832.8,380.7z"/>
		<path class="st1" d="M1832.8,357.8c-52.2-30.9-106.1-62.9-173.9-62.9c-67.8,0-121.7,32-173.9,62.9
			c-52.6,31.2-106.9,63.4-175.6,63.4c-68.7,0-123.1-32.2-175.6-63.4c-52.2-30.9-106.1-62.9-173.9-62.9v-3.4
			c68.7,0,123.1,32.2,175.6,63.4c52.2,30.9,106.1,62.9,173.9,62.9s121.7-32,173.9-62.9c52.6-31.2,106.9-63.4,175.6-63.4
			c68.7,0,123.1,32.2,175.6,63.4c27.8,16.5,56.6,33.6,87.1,45.6l-1.3,3.2C1889.6,391.5,1860.7,374.4,1832.8,357.8z"/>
		<path class="st1" d="M1832.8,334.8c-52.2-30.9-106.1-62.9-173.9-62.9c-67.8,0-121.7,32-173.9,62.9
			c-52.6,31.2-106.9,63.4-175.6,63.4c-68.7,0-123.1-32.2-175.6-63.4c-52.2-30.9-106.1-62.9-173.9-62.9v-3.4
			c68.7,0,123.1,32.2,175.6,63.4c52.2,30.9,106.1,62.9,173.9,62.9s121.7-32,173.9-62.9c52.6-31.2,106.9-63.4,175.6-63.4
			c68.7,0,123.1,32.2,175.6,63.4c27.8,16.5,56.6,33.6,87.1,45.6l-1.3,3.2C1889.6,368.5,1860.7,351.4,1832.8,334.8z"/>
		<path class="st1" d="M1832.8,311.9c-52.2-30.9-106.1-62.9-173.9-62.9c-67.8,0-121.7,32-173.9,62.9
			c-52.6,31.2-106.9,63.4-175.6,63.4c-68.7,0-123.1-32.2-175.6-63.4C1081.6,281,1027.7,249,959.9,249v-3.4
			c68.7,0,123.1,32.2,175.6,63.4c52.2,30.9,106.1,62.9,173.9,62.9s121.7-32,173.9-62.9c52.6-31.2,106.9-63.4,175.6-63.4
			c68.7,0,123.1,32.2,175.6,63.4c27.8,16.5,56.6,33.6,87.1,45.6l-1.3,3.2C1889.6,345.6,1860.7,328.4,1832.8,311.9z"/>
		<path class="st1" d="M1832.8,288.9c-52.2-30.9-106.1-62.9-173.9-62.9c-67.8,0-121.7,32-173.9,62.9
			c-52.6,31.2-106.9,63.4-175.6,63.4c-68.7,0-123.1-32.2-175.6-63.4C1081.6,258,1027.7,226,959.9,226v-3.4
			c68.7,0,123.1,32.2,175.6,63.4c52.2,30.9,106.1,62.9,173.9,62.9s121.7-32,173.9-62.9c52.6-31.2,106.9-63.4,175.6-63.4
			c68.7,0,123.1,32.2,175.6,63.4c27.8,16.5,56.6,33.6,87.1,45.6l-1.3,3.2C1889.6,322.6,1860.7,305.5,1832.8,288.9z"/>
		<path class="st1" d="M1832.8,266c-52.2-30.9-106.1-62.9-173.9-62.9c-67.8,0-121.7,32-173.9,62.9c-52.6,31.2-106.9,63.4-175.6,63.4
			c-68.7,0-123.1-32.2-175.6-63.4c-52.2-30.9-106.1-62.9-173.9-62.9v-3.4c68.7,0,123.1,32.2,175.6,63.4
			c52.2,30.9,106.1,62.9,173.9,62.9s121.7-32,173.9-62.9c52.6-31.2,106.9-63.4,175.6-63.4c68.7,0,123.1,32.2,175.6,63.4
			c27.8,16.5,56.6,33.6,87.1,45.6l-1.3,3.2C1889.6,299.7,1860.7,282.5,1832.8,266z"/>
		<path class="st1" d="M1832.8,243c-52.2-30.9-106.1-62.9-173.9-62.9c-67.8,0-121.7,32-173.9,62.9c-52.6,31.2-106.9,63.4-175.6,63.4
			c-68.7,0-123.1-32.2-175.6-63.4c-52.2-30.9-106.1-62.9-173.9-62.9v-3.4c68.7,0,123.1,32.2,175.6,63.4
			c52.2,30.9,106.1,62.9,173.9,62.9s121.7-32,173.9-62.9c52.6-31.2,106.9-63.4,175.6-63.4c68.7,0,123.1,32.2,175.6,63.4
			c27.8,16.5,56.6,33.6,87.1,45.6l-1.3,3.2C1889.6,276.7,1860.7,259.6,1832.8,243z"/>
		<path class="st1" d="M1832.8,220.1c-52.2-30.9-106.1-62.9-173.9-62.9c-67.8,0-121.7,32-173.9,62.9
			c-52.6,31.2-106.9,63.4-175.6,63.4c-68.7,0-123.1-32.2-175.6-63.4c-52.2-30.9-106.1-62.9-173.9-62.9v-3.4
			c68.7,0,123.1,32.2,175.6,63.4c52.2,30.9,106.1,62.9,173.9,62.9s121.7-32,173.9-62.9c52.6-31.2,106.9-63.4,175.6-63.4
			c68.7,0,123.1,32.2,175.6,63.4c27.8,16.5,56.6,33.6,87.1,45.6l-1.3,3.2C1889.6,253.8,1860.7,236.6,1832.8,220.1z"/>
		<path class="st1" d="M1832.8,197.1c-52.2-30.9-106.1-62.9-173.9-62.9c-67.8,0-121.7,32-173.9,62.9
			c-52.6,31.2-106.9,63.4-175.6,63.4c-68.7,0-123.1-32.2-175.6-63.4c-52.2-30.9-106.1-62.9-173.9-62.9v-3.4
			c68.7,0,123.1,32.2,175.6,63.4c52.2,30.9,106.1,62.9,173.9,62.9s121.7-32,173.9-62.9c52.6-31.2,106.9-63.4,175.6-63.4
			c68.7,0,123.1,32.2,175.6,63.4c27.8,16.5,56.6,33.6,87.1,45.6l-1.3,3.2C1889.6,230.8,1860.7,213.7,1832.8,197.1z"/>
		<path class="st1" d="M1832.8,174.2c-52.2-30.9-106.1-62.9-173.9-62.9c-67.8,0-121.7,32-173.9,62.9
			c-52.6,31.2-106.9,63.4-175.6,63.4c-68.7,0-123.1-32.2-175.6-63.4c-52.2-30.9-106.1-62.9-173.9-62.9v-3.4
			c68.7,0,123.1,32.2,175.6,63.4c52.2,30.9,106.1,62.9,173.9,62.9s121.7-32,173.9-62.9c52.6-31.2,106.9-63.4,175.6-63.4
			c68.7,0,123.1,32.2,175.6,63.4c27.8,16.5,56.6,33.6,87.1,45.6l-1.3,3.2C1889.6,207.9,1860.7,190.7,1832.8,174.2z"/>
		<path class="st1" d="M1832.8,151.2c-52.2-30.9-106.1-62.9-173.9-62.9c-67.8,0-121.7,32-173.9,62.9
			c-52.6,31.2-106.9,63.4-175.6,63.4c-68.7,0-123.1-32.2-175.6-63.4c-52.2-30.9-106.1-62.9-173.9-62.9v-3.4
			c68.7,0,123.1,32.2,175.6,63.4c52.2,30.9,106.1,62.9,173.9,62.9s121.7-32,173.9-62.9c52.6-31.2,106.9-63.4,175.6-63.4
			c68.7,0,123.1,32.2,175.6,63.4c27.8,16.5,56.6,33.6,87.1,45.6l-1.3,3.2C1889.6,184.9,1860.7,167.8,1832.8,151.2z"/>
		<path class="st1" d="M1832.8,128.2c-52.2-30.9-106.1-62.9-173.9-62.9s-121.7,32-173.9,62.9c-52.6,31.2-106.9,63.4-175.6,63.4
			c-68.7,0-123.1-32.2-175.6-63.4c-52.2-30.9-106.1-62.9-173.9-62.9v-3.4c68.7,0,123.1,32.2,175.6,63.4
			c52.2,30.9,106.1,62.9,173.9,62.9s121.7-32,173.9-62.9c52.6-31.2,106.9-63.4,175.6-63.4c68.7,0,123.1,32.2,175.6,63.4
			c27.8,16.5,56.6,33.6,87.1,45.6l-1.3,3.2C1889.6,161.9,1860.7,144.8,1832.8,128.2z"/>
		<path class="st1" d="M1832.8,105.3c-52.2-30.9-106.1-62.9-173.9-62.9c-67.8,0-121.7,32-173.9,62.9
			c-52.6,31.2-106.9,63.4-175.6,63.4c-68.7,0-123.1-32.2-175.6-63.4c-52.2-30.9-106.1-62.9-173.9-62.9V39
			c68.7,0,123.1,32.2,175.6,63.4c52.2,30.9,106.1,62.9,173.9,62.9s121.7-32,173.9-62.9c52.6-31.2,106.9-63.4,175.6-63.4
			c68.7,0,123.1,32.2,175.6,63.4c27.8,16.5,56.6,33.6,87.1,45.6l-1.3,3.2C1889.6,139,1860.7,121.9,1832.8,105.3z"/>
		<path class="st1" d="M1832.8,82.3c-52.2-30.9-106.1-62.9-173.9-62.9c-67.8,0-121.7,32-173.9,62.9
			c-52.6,31.2-106.9,63.4-175.6,63.4c-68.7,0-123.1-32.2-175.6-63.4c-52.2-30.9-106.1-62.9-173.9-62.9V16
			c68.7,0,123.1,32.2,175.6,63.4c52.2,30.9,106.1,62.9,173.9,62.9s121.7-32,173.9-62.9c52.6-31.2,106.9-63.4,175.6-63.4
			c68.7,0,123.1,32.2,175.6,63.4c27.8,16.5,56.6,33.6,87.1,45.6l-1.3,3.2C1889.6,116,1860.7,98.9,1832.8,82.3z"/>
		<path class="st1" d="M1832.8,59.4c-52.2-30.9-106.1-62.9-173.9-62.9c-67.8,0-121.7,32-173.9,62.9
			c-52.6,31.2-106.9,63.4-175.6,63.4c-68.7,0-123.1-32.2-175.6-63.4c-52.2-30.9-106.1-62.9-173.9-62.9v-3.4
			c68.7,0,123.1,32.2,175.6,63.4c52.2,30.9,106.1,62.9,173.9,62.9s121.7-32,173.9-62.9c52.6-31.2,106.9-63.4,175.6-63.4
			c68.7,0,123.1,32.2,175.6,63.4c27.8,16.5,56.6,33.6,87.1,45.6l-1.3,3.2C1889.6,93.1,1860.7,75.9,1832.8,59.4z"/>
		<path class="st1" d="M1832.8,36.4c-52.2-30.9-106.1-62.9-173.9-62.9c-67.8,0-121.7,32-173.9,62.9
			c-52.6,31.2-106.9,63.4-175.6,63.4c-68.7,0-123.1-32.2-175.6-63.4c-52.2-30.9-106.1-62.9-173.9-62.9v-3.4
			c68.7,0,123.1,32.2,175.6,63.4c52.2,30.9,106.1,62.9,173.9,62.9s121.7-32,173.9-62.9c52.6-31.2,106.9-63.4,175.6-63.4
			c68.7,0,123.1,32.2,175.6,63.4c27.8,16.5,56.6,33.6,87.1,45.6l-1.3,3.2C1889.6,70.1,1860.7,53,1832.8,36.4z"/>
		<path class="st1" d="M1832.8,13.5c-52.2-30.9-106.1-62.9-173.9-62.9c-67.8,0-121.7,32-173.9,62.9
			c-52.6,31.2-106.9,63.4-175.6,63.4c-68.7,0-123.1-32.2-175.6-63.4c-52.2-30.9-106.1-62.9-173.9-62.9v-3.4
			c68.7,0,123.1,32.2,175.6,63.4c52.2,30.9,106.1,62.9,173.9,62.9s121.7-32,173.9-62.9c52.6-31.2,106.9-63.4,175.6-63.4
			c68.7,0,123.1,32.2,175.6,63.4c27.8,16.5,56.6,33.6,87.1,45.6l-1.3,3.2C1889.6,47.2,1860.7,30,1832.8,13.5z"/>
		<path class="st1" d="M1832.8-9.5c-52.2-30.9-106.1-62.9-173.9-62.9c-67.8,0-121.7,32-173.9,62.9c-52.6,31.2-106.9,63.4-175.6,63.4
			c-68.7,0-123.1-32.2-175.6-63.4c-52.2-30.9-106.1-62.9-173.9-62.9v-3.4c68.7,0,123.1,32.2,175.6,63.4
			c52.2,30.9,106.1,62.9,173.9,62.9s121.7-32,173.9-62.9c52.6-31.2,106.9-63.4,175.6-63.4c68.7,0,123.1,32.2,175.6,63.4
			c27.8,16.5,56.6,33.6,87.1,45.6l-1.3,3.2C1889.6,24.2,1860.7,7.1,1832.8-9.5z"/>
		<path class="st1" d="M1832.8-32.4c-52.2-30.9-106.1-62.9-173.9-62.9c-67.8,0-121.7,32-173.9,62.9
			c-52.6,31.2-106.9,63.4-175.6,63.4c-68.7,0-123.1-32.2-175.6-63.4c-52.2-30.9-106.1-62.9-173.9-62.9v-3.4
			c68.7,0,123.1,32.2,175.6,63.4c52.2,30.9,106.1,62.9,173.9,62.9s121.7-32,173.9-62.9c52.6-31.2,106.9-63.4,175.6-63.4
			c68.7,0,123.1,32.2,175.6,63.4c27.8,16.5,56.6,33.6,87.1,45.6l-1.3,3.2C1889.6,1.3,1860.7-15.9,1832.8-32.4z"/>
		<path class="st1" d="M1309.4,8c-68.7,0-123.1-32.2-175.6-63.4c-28-16.6-57-33.8-87.7-45.8l1.2-3.2c31,12.1,60.1,29.4,88.2,46
			c52.2,30.9,106.1,62.9,173.9,62.9c67.8,0,121.7-32,173.9-62.9c28.1-16.7,57.2-33.9,88.2-46l1.2,3.2C1542-89.2,1513-72,1485-55.4
			C1432.5-24.2,1378.1,8,1309.4,8z"/>
		<path class="st1" d="M1832.8-55.4c-28-16.6-57-33.8-87.7-45.8l1.2-3.2c31,12.1,60.1,29.4,88.2,46c27.8,16.5,56.6,33.6,87.1,45.6
			l-1.3,3.2C1889.6-21.7,1860.7-38.8,1832.8-55.4z"/>
		<path class="st1" d="M1309.4-15c-68.7,0-123.1-32.2-175.6-63.4c-12.9-7.7-26.3-15.6-39.7-22.9l1.6-3c13.4,7.3,26.8,15.3,39.8,23
			c52.2,30.9,106.1,62.9,173.9,62.9c67.8,0,121.7-32,173.9-62.9c13-7.7,26.4-15.6,39.8-23l1.6,3C1511.3-94,1498-86,1485-78.3
			C1432.5-47.2,1378.1-15,1309.4-15z"/>
		<path class="st1" d="M1832.8-78.3c-12.9-7.7-26.3-15.6-39.7-22.9l1.6-3c13.4,7.3,26.8,15.3,39.8,23c27.8,16.5,56.6,33.6,87.1,45.5
			l-1.3,3.2C1889.6-44.6,1860.7-61.8,1832.8-78.3z"/>
		<path class="st1" d="M1133.8-101.3l1.8-2.9c52.2,30.9,106.1,62.9,173.9,62.9c67.8,0,121.7-32,173.9-62.9l1.7,2.9
			c-52.6,31.2-106.9,63.4-175.6,63.4C1240.7-37.9,1186.3-70.1,1133.8-101.3z"/>
		<path class="st1" d="M1832.8-101.3l1.8-2.9c27.8,16.5,56.6,33.5,87.1,45.5l-1.3,3.2C1889.6-67.6,1860.7-84.7,1832.8-101.3z"/>
		<path class="st1" d="M1173.6-101.3l1.6-3c36.1,19.8,80.3,40,134.2,40c53.8,0,98-20.2,134.2-40l1.6,3
			c-36.5,20-81.2,40.4-135.8,40.4S1210.1-81.3,1173.6-101.3z"/>
		<path class="st1" d="M1872.6-101.3l1.6-3c17.7,9.7,32.7,16.9,47.4,22.6l-1.3,3.2C1905.6-84.3,1890.4-91.5,1872.6-101.3z"/>
		<path class="st1" d="M1222-101.2l1.2-3.2c29.5,11.5,57.6,17.1,86.1,17.1c28.5,0,56.7-5.6,86.1-17.1l1.2,3.2
			c-29.9,11.7-58.4,17.3-87.4,17.3C1280.4-83.8,1251.9-89.5,1222-101.2z"/>
	</g>
</g>
</svg>
